<svg width="26" height="26" viewBox="0 0 26 26" fill="none" xmlns="http://www.w3.org/2000/svg">
<path fill-rule="evenodd" clip-rule="evenodd" d="M8.37127 13.182C6.99397 12.8159 4.21619 11.7892 4.21619 9.46049C4.21619 6.36368 7.99532 2.10811 7.99532 2.10811C7.99532 2.10811 9.22575 0 12.6873 0C16.1481 0 17.9168 2.10811 17.9168 2.10811C17.9168 2.10811 20.3783 4.86762 20.3783 9.46049C20.3783 11.8272 18.9898 12.7878 17.6441 13.1637C16.5507 14.4637 14.8649 15.288 13 15.288C11.1434 15.288 9.46538 14.4722 8.37127 13.182ZM8.78024 11.1849C9.42954 12.7477 11.0514 13.8833 13 13.8833C13.8011 13.8833 14.5466 13.6908 15.1924 13.3563L15.1481 13.3514C15.1481 13.3514 19.3489 9.29816 15.8108 4.21622C15.4264 3.50157 9.57219 5.27027 8.78375 6.32432C8.31013 6.95676 8.52938 9.36351 8.78024 11.1849Z" fill="#3A3A3A"/>
<path d="M5.92589 19.9863C5.50194 20.246 5.18342 20.6472 5.0266 21.119C4.86979 21.5908 4.88476 22.1028 5.06889 22.5646C5.25302 23.0264 5.59445 23.4083 6.03286 23.6428C6.47127 23.8773 6.97844 23.9493 7.46478 23.8461C7.95113 23.7428 8.38534 23.471 8.69071 23.0787C8.99607 22.6863 9.15295 22.1987 9.13361 21.7019C9.11428 21.2051 8.91998 20.7311 8.58504 20.3637C8.2501 19.9963 7.79608 19.759 7.30319 19.6939C7.27686 19.5996 7.25272 19.5047 7.23081 19.4093C7.13472 18.9752 7.05968 18.5367 7.00595 18.0953C6.94789 17.6492 6.91505 17.2001 6.90757 16.7503C6.90611 16.6268 6.90963 16.5032 6.91811 16.38C7.18795 16.3027 7.45919 16.2324 7.72973 16.1713C8.03962 16.101 8.22373 16.4664 8.372 16.763L8.37973 16.7784L8.43243 16.8817H16.6885C16.8494 16.5767 17.2141 16.0905 17.5676 16.1713C17.9442 16.257 18.323 16.3589 18.6982 16.4756L18.6961 16.4763C18.6947 16.4748 18.6947 16.4748 18.6961 16.4777C18.6989 16.4875 18.7144 16.5339 18.7298 16.6323C18.7474 16.7461 18.7593 16.8937 18.765 17.0714C18.7748 17.4256 18.7544 17.8564 18.713 18.2906C18.6708 18.7242 18.6083 19.1437 18.538 19.4747C18.5225 19.5485 18.5071 19.6152 18.4916 19.6757H17.5676C17.4371 19.6757 17.3092 19.7121 17.1983 19.7808C17.0873 19.8494 16.9977 19.9476 16.9394 20.0643L16.2366 21.4697C16.1878 21.5672 16.1623 21.6747 16.1622 21.7838V23.1892C16.1622 23.3755 16.2362 23.5543 16.368 23.6861C16.4998 23.8178 16.6785 23.8919 16.8649 23.8919H18.2703V22.4865H17.5676V21.9496L18.0018 21.0811H19.9441L20.3784 21.9496V22.4865H19.6757V23.8919H21.0811C21.2675 23.8919 21.4462 23.8178 21.578 23.6861C21.7097 23.5543 21.7838 23.3755 21.7838 23.1892V21.7838C21.7837 21.6747 21.7582 21.5672 21.7093 21.4697L21.0066 20.0643C20.9483 19.9476 20.8586 19.8494 20.7477 19.7808C20.6367 19.7121 20.5088 19.6757 20.3784 19.6757H19.9315C20.0066 19.3011 20.0692 18.864 20.1114 18.4256C20.1577 17.9519 20.1816 17.4607 20.1697 17.0321L20.169 17.0124C22.9714 18.1965 25.2973 20.1437 25.2973 22.1843V26H0V22.1843C0 20.0537 2.53676 18.0243 5.50287 16.8599C5.51059 17.297 5.55205 17.791 5.61178 18.2696C5.67643 18.786 5.76427 19.2997 5.86124 19.7227C5.88232 19.8134 5.90341 19.9012 5.92589 19.9863Z" fill="#3A3A3A"/>
<path d="M7.02704 22.497C7.4051 22.497 7.72975 22.1879 7.72975 21.7838C7.72975 21.3804 7.4051 21.0706 7.02704 21.0706C6.64899 21.0706 6.32434 21.3797 6.32434 21.7838C6.32434 22.1872 6.64899 22.497 7.02704 22.497Z" fill="#3A3A3A"/>
</svg>
