<svg width="7" height="4" viewBox="0 0 7 4" fill="none" xmlns="http://www.w3.org/2000/svg">
<path d="M3.50395 4C3.42033 4 3.34195 3.9872 3.26879 3.96161C3.19562 3.93642 3.12769 3.89335 3.06498 3.83241L0.164667 1.01379C0.0496995 0.90206 -0.00506684 0.762298 0.000367982 0.594501C0.00538474 0.427111 0.0653766 0.287551 0.180344 0.175822C0.295311 0.0640929 0.441634 0.0082281 0.61931 0.0082281C0.796987 0.0082281 0.94331 0.0640929 1.05828 0.175822L3.50395 2.5526L5.96529 0.160586C6.08026 0.0488568 6.22407 -0.00456967 6.39673 0.000305779C6.56898 0.00558751 6.71258 0.0640929 6.82755 0.175822C6.94251 0.287551 7 0.429751 7 0.602423C7 0.775095 6.94251 0.917296 6.82755 1.02902L3.94291 3.83241C3.8802 3.89335 3.81227 3.93642 3.73911 3.96161C3.66595 3.9872 3.58756 4 3.50395 4Z" fill="#DE5454"/>
</svg>
