<svg width="16" height="9" viewBox="0 0 16 9" fill="none" xmlns="http://www.w3.org/2000/svg">
<path d="M8.00902 9C7.81791 9 7.63874 8.9712 7.47151 8.91361C7.30429 8.85694 7.14901 8.76004 7.00567 8.62292L0.376381 2.28103C0.113599 2.02964 -0.0115813 1.71517 0.000841103 1.33763C0.012308 0.960999 0.149432 0.64699 0.412215 0.395599C0.674997 0.144209 1.00945 0.0185132 1.41557 0.0185132C1.82169 0.0185132 2.15614 0.144209 2.41892 0.395599L8.00902 5.74335L13.635 0.361318C13.8977 0.109928 14.2265 -0.0102818 14.6211 0.000688002C15.0148 0.0125719 15.343 0.144209 15.6058 0.395599C15.8686 0.64699 16 0.966941 16 1.35545C16 1.74396 15.8686 2.06392 15.6058 2.31531L9.01237 8.62292C8.86904 8.76004 8.71376 8.85694 8.54653 8.91361C8.3793 8.9712 8.20014 9 8.00902 9Z" fill="#111111"/>
</svg>
