<svg width="90" height="108" viewBox="0 0 90 108" fill="none" xmlns="http://www.w3.org/2000/svg">
<path d="M87.4705 28.5057L60.7073 1.74255C59.5809 0.683056 58.0863 0.103706 56.54 0.127239C54.9938 0.150772 53.5175 0.775341 52.4238 1.86862C51.3301 2.96191 50.705 4.43802 50.681 5.98424C50.6569 7.53046 51.2357 9.02533 52.2948 10.1521L40.8193 21.6276L67.5825 48.3907L79.058 36.9153C80.1731 38.0309 81.6858 38.6578 83.2632 38.658C84.0442 38.6582 84.8176 38.5045 85.5393 38.2057C86.2609 37.9069 86.9166 37.469 87.469 36.9168C88.0214 36.3646 88.4596 35.709 88.7586 34.9875C89.0576 34.266 89.2116 33.4926 89.2118 32.7116C89.2119 31.9305 89.0582 31.1571 88.7594 30.4355C88.4607 29.7138 88.0227 29.0581 87.4705 28.5057Z" fill="#E1E8ED"/>
<path d="M56.5 6.10352e-05H11.8947C8.74006 6.10352e-05 5.71459 1.25326 3.48389 3.48396C1.25319 5.71465 0 8.74013 0 11.8948V95.158C0 98.3127 1.25319 101.338 3.48389 103.569C5.71459 105.8 8.74006 107.053 11.8947 107.053H77.3158C80.4705 107.053 83.496 105.8 85.7267 103.569C87.9574 101.338 89.2106 98.3127 89.2106 95.158V32.7106H62.4474C59.4737 32.7106 56.5 29.7369 56.5 26.7632V6.10352e-05Z" fill="#CCD6DD"/>
<path d="M56.5001 4.95911e-05H50.5527V26.7632C50.5527 29.9179 51.8059 32.9434 54.0366 35.1741C56.2673 37.4048 59.2928 38.658 62.4475 38.658H89.2106V32.7106H62.4475C59.4738 32.7106 56.5001 29.7369 56.5001 26.7632V4.95911e-05Z" fill="#99AAB5"/>
<path d="M41.6314 23.7895C41.6314 24.5782 41.3181 25.3345 40.7604 25.8922C40.2027 26.4499 39.4464 26.7632 38.6577 26.7632H14.8682C14.0795 26.7632 13.3232 26.4499 12.7655 25.8922C12.2078 25.3345 11.8945 24.5782 11.8945 23.7895C11.8945 23.0008 12.2078 22.2445 12.7655 21.6868C13.3232 21.1291 14.0795 20.8158 14.8682 20.8158H38.6577C39.4464 20.8158 40.2027 21.1291 40.7604 21.6868C41.3181 22.2445 41.6314 23.0008 41.6314 23.7895Z" fill="#99AAB5"/>
<path d="M41.6314 35.6843C41.6314 36.4729 41.3181 37.2293 40.7604 37.787C40.2027 38.3447 39.4464 38.658 38.6577 38.658H14.8682C14.0795 38.658 13.3232 38.3447 12.7655 37.787C12.2078 37.2293 11.8945 36.4729 11.8945 35.6843C11.8945 34.8956 12.2078 34.1392 12.7655 33.5816C13.3232 33.0239 14.0795 32.7106 14.8682 32.7106H38.6577C39.4464 32.7106 40.2027 33.0239 40.7604 33.5816C41.3181 34.1392 41.6314 34.8956 41.6314 35.6843Z" fill="#99AAB5"/>
<path d="M77.3156 47.579C77.3156 48.3677 77.0023 49.1241 76.4446 49.6818C75.887 50.2394 75.1306 50.5527 74.3419 50.5527H14.8682C14.0795 50.5527 13.3232 50.2394 12.7655 49.6818C12.2078 49.1241 11.8945 48.3677 11.8945 47.579C11.8945 46.7904 12.2078 46.034 12.7655 45.4763C13.3232 44.9187 14.0795 44.6054 14.8682 44.6054H74.3419C75.1306 44.6054 75.887 44.9187 76.4446 45.4763C77.0023 46.034 77.3156 46.7904 77.3156 47.579Z" fill="#99AAB5"/>
<path d="M77.3156 59.4737C77.3156 60.2624 77.0023 61.0187 76.4446 61.5764C75.887 62.1341 75.1306 62.4474 74.3419 62.4474H14.8682C14.0795 62.4474 13.3232 62.1341 12.7655 61.5764C12.2078 61.0187 11.8945 60.2624 11.8945 59.4737C11.8945 58.685 12.2078 57.9287 12.7655 57.371C13.3232 56.8133 14.0795 56.5 14.8682 56.5H74.3419C75.1306 56.5 75.887 56.8133 76.4446 57.371C77.0023 57.9287 77.3156 58.685 77.3156 59.4737Z" fill="#99AAB5"/>
<path d="M77.3156 71.3686C77.3156 72.1573 77.0023 72.9136 76.4446 73.4713C75.887 74.029 75.1306 74.3423 74.3419 74.3423H14.8682C14.0795 74.3423 13.3232 74.029 12.7655 73.4713C12.2078 72.9136 11.8945 72.1573 11.8945 71.3686C11.8945 70.5799 12.2078 69.8236 12.7655 69.2659C13.3232 68.7082 14.0795 68.3949 14.8682 68.3949H74.3419C75.1306 68.3949 75.887 68.7082 76.4446 69.2659C77.0023 69.8236 77.3156 70.5799 77.3156 71.3686Z" fill="#99AAB5"/>
<path d="M77.3156 83.2633C77.3156 84.0519 77.0023 84.8083 76.4446 85.366C75.887 85.9236 75.1306 86.2369 74.3419 86.2369H14.8682C14.0795 86.2369 13.3232 85.9236 12.7655 85.366C12.2078 84.8083 11.8945 84.0519 11.8945 83.2633C11.8945 82.4746 12.2078 81.7182 12.7655 81.1605C13.3232 80.6029 14.0795 80.2896 14.8682 80.2896H74.3419C75.1306 80.2896 75.887 80.6029 76.4446 81.1605C77.0023 81.7182 77.3156 82.4746 77.3156 83.2633Z" fill="#99AAB5"/>
</svg>
