<svg width="626" height="632" viewBox="0 0 626 632" fill="none" xmlns="http://www.w3.org/2000/svg">
<path fill-rule="evenodd" clip-rule="evenodd" d="M322.411 52.2092C396.06 50.031 474.344 64.3586 524.571 118.996C573.631 172.363 577.562 251.154 572.165 323.891C567.234 390.332 544.265 454.569 496.289 500.12C449.765 544.293 385.635 552.749 322.411 561.024C244.878 571.171 155.62 604.77 96.9692 552.382C37.4436 499.213 50.3278 404.028 56.9295 323.891C62.8355 252.2 81.7664 181.729 131.714 130.614C181.895 79.262 251.131 54.3173 322.411 52.2092Z" stroke="white" stroke-width="2"/>
<path fill-rule="evenodd" clip-rule="evenodd" d="M324.029 22.2325C405.987 19.8114 493.102 35.737 548.995 96.4678C603.59 155.787 607.964 243.366 601.958 324.215C596.471 398.066 570.91 469.468 517.522 520.1C465.75 569.199 394.386 578.598 324.029 587.796C237.75 599.075 138.422 636.421 73.1551 578.191C6.91426 519.091 21.252 413.291 28.5985 324.215C35.1706 244.528 56.2372 166.198 111.82 109.382C167.661 52.3025 244.707 24.5758 324.029 22.2325Z" stroke="white" stroke-width="2"/>
<path opacity="0.2" fill-rule="evenodd" clip-rule="evenodd" d="M324.825 1.24913C412.697 -1.34492 506.099 15.7182 566.026 80.7869C624.56 144.343 629.25 238.178 622.81 324.802C616.928 403.928 589.522 480.43 532.281 534.678C476.773 587.285 400.259 597.355 324.825 607.21C232.319 619.294 125.823 659.308 55.8465 596.918C-15.1745 533.598 0.197896 420.24 8.07452 324.802C15.1209 239.423 37.7078 155.498 97.3016 94.624C157.173 33.467 239.779 3.75975 324.825 1.24913Z" stroke="white" stroke-width="2"/>
</svg>
