<svg width="47" height="41" viewBox="0 0 47 41" fill="none" xmlns="http://www.w3.org/2000/svg">
<path d="M34.1875 20.5C34.1875 20.9724 33.9998 21.4255 33.6658 21.7595C33.3317 22.0936 32.8787 22.2812 32.4062 22.2812H16.375V33.8594C16.375 37.4219 20.1368 40.0938 23.5 40.0938H40.4219C42.0748 40.092 43.6595 39.4346 44.8283 38.2658C45.9971 37.097 46.6545 35.5123 46.6562 33.8594V7.14062C46.6545 5.48771 45.9971 3.903 44.8283 2.73421C43.6595 1.56542 42.0748 0.908018 40.4219 0.90625H22.6094C20.9565 0.908018 19.3717 1.56542 18.203 2.73421C17.0342 3.903 16.3768 5.48771 16.375 7.14062V18.7188H32.4062C32.8787 18.7188 33.3317 18.9064 33.6658 19.2405C33.9998 19.5745 34.1875 20.0276 34.1875 20.5ZM0.865876 21.7591L9.77213 30.6654C10.1089 30.9853 10.5573 31.1611 11.0218 31.1551C11.4863 31.1492 11.9301 30.962 12.2585 30.6335C12.587 30.3051 12.7742 29.8613 12.7801 29.3968C12.7861 28.9323 12.6103 28.4839 12.2904 28.1471L6.4256 22.2812H16.375V18.7188H6.4256L12.2904 12.8529C12.4627 12.6891 12.6006 12.4925 12.6958 12.2746C12.7909 12.0568 12.8416 11.822 12.8446 11.5843C12.8476 11.3466 12.8031 11.1106 12.7135 10.8904C12.6239 10.6702 12.4911 10.4701 12.323 10.302C12.1549 10.1339 11.9548 10.0011 11.7346 9.91151C11.5144 9.82194 11.2784 9.77736 11.0407 9.7804C10.803 9.78344 10.5682 9.83405 10.3504 9.92924C10.1325 10.0244 9.93589 10.1623 9.77213 10.3346L0.865876 19.2409C0.532079 19.5749 0.344572 20.0278 0.344572 20.5C0.344572 20.9722 0.532079 21.4251 0.865876 21.7591V21.7591Z" fill="#D63C3C"/>
</svg>
