<svg width="23" height="29" viewBox="0 0 23 29" fill="none" xmlns="http://www.w3.org/2000/svg">
<path d="M11.5 11.5C14.6769 11.5 17.25 8.92684 17.25 5.74998C17.25 2.57311 14.6769 0 11.5 0C8.32318 0 5.75007 2.57311 5.75007 5.74998C5.75007 8.92684 8.32318 11.5 11.5 11.5ZM11.5 2.87499C13.0813 2.87499 14.375 4.16873 14.375 5.74998C14.375 7.33122 13.0813 8.62496 11.5 8.62496C9.9188 8.62496 8.62506 7.33122 8.62506 5.74998C8.62506 4.16873 9.9188 2.87499 11.5 2.87499ZM20.6856 15.1799C18.2706 13.9437 15.1369 12.9374 11.5 12.9374C7.86319 12.9374 4.72945 13.9437 2.31446 15.1799C1.61305 15.5412 1.02546 16.0898 0.616922 16.7647C0.208384 17.4397 -0.00512518 18.2147 9.34232e-05 19.0037V28.7499H2.87508V19.0037C2.87508 18.4574 3.16258 17.9687 3.59383 17.7387C5.3332 16.8618 8.09319 15.8124 11.5 15.8124C12.5925 15.8124 13.6132 15.9131 14.5619 16.0999L12.3338 20.8437H8.26569C6.08069 20.8437 4.31258 22.6118 4.31258 24.7968C4.31258 26.9818 6.08069 28.7499 8.26569 28.7499H20.125C21.7063 28.7499 23 27.4561 23 25.8749V19.0037C23 17.3937 22.1231 15.9131 20.6856 15.1799ZM9.9763 25.8749H8.26569C7.67631 25.8749 7.18756 25.3861 7.18756 24.7968C7.18756 24.2074 7.67631 23.7187 8.26569 23.7187H10.9825L9.9763 25.8749ZM20.125 25.8749H13.1532L17.3794 16.8618C18.1556 17.1493 18.8313 17.4512 19.4063 17.7387C19.8375 17.9687 20.125 18.4574 20.125 19.0037V25.8749Z" fill="#3A3A3A"/>
</svg>
