<svg width="18" height="17" viewBox="0 0 18 17" fill="none" xmlns="http://www.w3.org/2000/svg">
<path d="M0.54 5.66667H1.8C1.899 5.66667 1.98 5.58698 1.98 5.48958V1.59375H5.94C6.039 1.59375 6.12 1.51406 6.12 1.41667V0.177083C6.12 0.0796875 6.039 0 5.94 0H1.89C1.044 0 0.36 0.672917 0.36 1.50521V5.48958C0.36 5.58698 0.441 5.66667 0.54 5.66667ZM12.06 1.59375H16.02V5.48958C16.02 5.58698 16.101 5.66667 16.2 5.66667H17.46C17.559 5.66667 17.64 5.58698 17.64 5.48958V1.50521C17.64 0.672917 16.956 0 16.11 0H12.06C11.961 0 11.88 0.0796875 11.88 0.177083V1.41667C11.88 1.51406 11.961 1.59375 12.06 1.59375ZM5.94 15.4062H1.98V11.5104C1.98 11.413 1.899 11.3333 1.8 11.3333H0.54C0.441 11.3333 0.36 11.413 0.36 11.5104V15.4948C0.36 16.3271 1.044 17 1.89 17H5.94C6.039 17 6.12 16.9203 6.12 16.8229V15.5833C6.12 15.4859 6.039 15.4062 5.94 15.4062ZM17.46 11.3333H16.2C16.101 11.3333 16.02 11.413 16.02 11.5104V15.4062H12.06C11.961 15.4062 11.88 15.4859 11.88 15.5833V16.8229C11.88 16.9203 11.961 17 12.06 17H16.11C16.956 17 17.64 16.3271 17.64 15.4948V11.5104C17.64 11.413 17.559 11.3333 17.46 11.3333ZM17.82 7.70312H0.18C0.081 7.70312 0 7.78281 0 7.88021V9.11979C0 9.21719 0.081 9.29688 0.18 9.29688H17.82C17.919 9.29688 18 9.21719 18 9.11979V7.88021C18 7.78281 17.919 7.70312 17.82 7.70312Z" fill="white"/>
</svg>
