<svg width="31" height="31" viewBox="0 0 31 31" fill="none" xmlns="http://www.w3.org/2000/svg">
<path d="M15.5 0C17.5554 0 19.5267 0.816515 20.9801 2.26992C22.4335 3.72333 23.25 5.69457 23.25 7.75C23.25 9.80543 22.4335 11.7767 20.9801 13.2301C19.5267 14.6835 17.5554 15.5 15.5 15.5C13.4446 15.5 11.4733 14.6835 10.0199 13.2301C8.56652 11.7767 7.75 9.80543 7.75 7.75C7.75 5.69457 8.56652 3.72333 10.0199 2.26992C11.4733 0.816515 13.4446 0 15.5 0M15.5 19.375C24.0638 19.375 31 22.8431 31 27.125V31H0V27.125C0 22.8431 6.93625 19.375 15.5 19.375Z" fill="#3A3A3A"/>
</svg>
