<svg width="25" height="25" viewBox="0 0 25 25" fill="none" xmlns="http://www.w3.org/2000/svg">
<path d="M17.0455 15.9091H9.09091V13.6364H17.0455V15.9091ZM20.4545 11.3636H9.09091V9.09091H20.4545V11.3636ZM20.4545 6.81818H9.09091V4.54545H20.4545V6.81818ZM2.27273 4.54545V22.7273H20.4545V25H2.27273C1.66996 25 1.09189 24.7606 0.665666 24.3343C0.239447 23.9081 0 23.33 0 22.7273V4.54545H2.27273ZM22.7273 0C23.33 0 23.9081 0.239447 24.3343 0.665666C24.7606 1.09189 25 1.66996 25 2.27273V18.1818C25 19.4432 23.9886 20.4545 22.7273 20.4545H6.81818C6.21542 20.4545 5.63734 20.2151 5.21112 19.7889C4.7849 19.3627 4.54545 18.7846 4.54545 18.1818V2.27273C4.54545 1.01136 5.55682 0 6.81818 0H22.7273ZM6.81818 2.27273V18.1818H22.7273V2.27273H6.81818Z" fill="#3A3A3A"/>
</svg>
