<svg width="22" height="22" viewBox="0 0 22 22" fill="none" xmlns="http://www.w3.org/2000/svg">
<path d="M2.15686 19.8C1.56373 19.8 1.05578 19.5848 0.633039 19.1543C0.211013 18.7231 0 18.205 0 17.6V2.2C0 1.595 0.211013 1.0769 0.633039 0.6457C1.05578 0.215233 1.56373 0 2.15686 0H15.098L19.4118 4.4V10.34L17.2549 12.54V5.3075L14.2083 2.2H2.15686V17.6H12.2941L10.1373 19.8H2.15686ZM9.70588 16.5C10.6046 16.5 11.3685 16.1792 11.9975 15.5375C12.6266 14.8958 12.9412 14.1167 12.9412 13.2C12.9412 12.2833 12.6266 11.5042 11.9975 10.8625C11.3685 10.2208 10.6046 9.9 9.70588 9.9C8.80719 9.9 8.0433 10.2208 7.41422 10.8625C6.78513 11.5042 6.47059 12.2833 6.47059 13.2C6.47059 14.1167 6.78513 14.8958 7.41422 15.5375C8.0433 16.1792 8.80719 16.5 9.70588 16.5ZM3.23529 7.7H12.9412V3.3H3.23529V7.7ZM12.9412 22V20.0475L18.3333 14.575L20.2206 16.5275L14.8554 22H12.9412ZM20.9216 15.785L19.0074 13.86L19.924 12.925C20.0319 12.815 20.162 12.76 20.3144 12.76C20.4675 12.76 20.598 12.815 20.7059 12.925L21.8382 14.08C21.9461 14.19 22 14.3183 22 14.465C22 14.6117 21.9461 14.74 21.8382 14.85L20.9216 15.785ZM2.15686 17.6V2.2V12.54V17.6Z" fill="white"/>
</svg>
