<svg width="20" height="20" viewBox="0 0 20 20" fill="none" xmlns="http://www.w3.org/2000/svg">
<path d="M19.9557 0.857247C20.0011 0.743668 20.0123 0.619245 19.9877 0.499401C19.9631 0.379557 19.9039 0.269563 19.8174 0.183056C19.7309 0.0965492 19.6209 0.037333 19.501 0.012749C19.3812 -0.011835 19.2568 -0.000705734 19.1432 0.044757L0.959675 7.31841H0.958425L0.393432 7.54341C0.286421 7.5861 0.193292 7.65753 0.12433 7.74982C0.0553688 7.84211 0.0132595 7.95167 0.00265399 8.06639C-0.00795155 8.18111 0.0133593 8.29653 0.0642326 8.3999C0.115106 8.50327 0.193562 8.59057 0.290934 8.65215L0.803427 8.97714L0.804677 8.97964L7.04835 12.9521L11.0208 19.1958L11.0233 19.1983L11.3483 19.7108C11.4101 19.8078 11.4974 19.8858 11.6007 19.9364C11.704 19.9869 11.8192 20.008 11.9337 19.9973C12.0482 19.9865 12.1576 19.9444 12.2497 19.8756C12.3418 19.8067 12.4131 19.7138 12.4558 19.607L19.9557 0.857247ZM17.6645 3.21972L8.29708 12.5871L8.02833 12.1646C7.97909 12.0871 7.91337 12.0213 7.83584 11.9721L7.41334 11.7034L16.7807 2.33598L18.2532 1.74724L17.6657 3.21972H17.6645Z" fill="#4264D0"/>
</svg>
