<svg width="13" height="8" viewBox="0 0 13 8" fill="none" xmlns="http://www.w3.org/2000/svg">
<path d="M3.0697 5.30221L8.13577 0.23613C8.29319 0.0787099 8.49355 0 8.73683 0C8.98012 0 9.18047 0.0787099 9.33789 0.23613C9.49531 0.393551 9.57402 0.593904 9.57402 0.83719C9.57402 1.08048 9.49531 1.28083 9.33789 1.43825L3.67076 7.10538C3.49903 7.27712 3.29867 7.36298 3.0697 7.36298C2.84072 7.36298 2.64037 7.27712 2.46864 7.10538L0.23613 4.87288C0.0787099 4.71546 0 4.5151 0 4.27182C0 4.02853 0.0787099 3.82818 0.23613 3.67076C0.393551 3.51334 0.593904 3.43463 0.83719 3.43463C1.08048 3.43463 1.28083 3.51334 1.43825 3.67076L3.0697 5.30221Z" fill="white" fill-opacity="0.5"/>
<path d="M5.64587 5.30221L10.7119 0.23613C10.8694 0.0787099 11.0697 0 11.313 0C11.5563 0 11.7566 0.0787099 11.9141 0.23613C12.0715 0.393551 12.1502 0.593904 12.1502 0.83719C12.1502 1.08048 12.0715 1.28083 11.9141 1.43825L6.24693 7.10538C6.0752 7.27712 5.87484 7.36298 5.64587 7.36298C5.41689 7.36298 5.21654 7.27712 5.04481 7.10538L2.8123 4.87288C2.65488 4.71546 2.57617 4.5151 2.57617 4.27182C2.57617 4.02853 2.65488 3.82818 2.8123 3.67076C2.96972 3.51334 3.17008 3.43463 3.41336 3.43463C3.65665 3.43463 3.857 3.51334 4.01442 3.67076L5.64587 5.30221Z" fill="white"/>
</svg>
