<svg width="25" height="25" viewBox="0 0 25 25" fill="none" xmlns="http://www.w3.org/2000/svg">
<path d="M1.22228 18.7489C0.693965 17.8353 0.283281 16.8585 0 15.8419C0.616525 15.5283 1.13429 15.0503 1.49602 14.4608C1.85775 13.8712 2.04934 13.1931 2.0496 12.5014C2.04986 11.8097 1.85878 11.1314 1.49749 10.5416C1.1362 9.95177 0.61879 9.47338 0.00249967 9.15934C0.567444 7.11656 1.64312 5.25123 3.12819 3.73906C3.70821 4.11614 4.38125 4.3254 5.07282 4.34367C5.7644 4.36194 6.44755 4.18851 7.04666 3.84258C7.64578 3.49664 8.1375 2.99169 8.4674 2.3836C8.79731 1.77551 8.95254 1.088 8.91592 0.39715C10.9682 -0.133229 13.1217 -0.132368 15.1736 0.399649C15.1373 1.09048 15.2928 1.77789 15.6229 2.38581C15.9531 2.99372 16.445 3.49844 17.0443 3.84411C17.6435 4.18978 18.3267 4.36293 19.0182 4.34439C19.7098 4.32585 20.3827 4.11634 20.9625 3.73906C21.7014 4.49249 22.3419 5.33658 22.8684 6.25111C23.4096 7.18719 23.8145 8.16327 24.0907 9.15809C23.4742 9.47166 22.9564 9.94967 22.5947 10.5392C22.233 11.1288 22.0414 11.8069 22.0411 12.4986C22.0409 13.1903 22.2319 13.8686 22.5932 14.4584C22.9545 15.0482 23.4719 15.5266 24.0882 15.8407C23.5233 17.8834 22.4476 19.7488 20.9625 21.2609C20.3825 20.8839 19.7095 20.6746 19.0179 20.6563C18.3263 20.6381 17.6432 20.8115 17.0441 21.1574C16.4449 21.5034 15.9532 22.0083 15.6233 22.6164C15.2934 23.2245 15.1382 23.912 15.1748 24.6028C13.1225 25.1332 10.969 25.1324 8.91717 24.6003C8.95347 23.9095 8.79793 23.2221 8.46777 22.6142C8.13761 22.0063 7.6457 21.5016 7.04646 21.1559C6.44723 20.8102 5.76404 20.6371 5.07251 20.6556C4.38097 20.6742 3.70804 20.8837 3.12819 21.2609C2.38956 20.5073 1.74918 19.6632 1.22228 18.7489ZM8.29603 18.9938C9.62782 19.762 10.6292 20.9948 11.108 22.4557C11.7317 22.5145 12.3578 22.5157 12.9814 22.457C13.4606 20.9958 14.4624 19.763 15.7947 18.9951C17.126 18.2248 18.6948 17.9734 20.2002 18.289C20.5626 17.7791 20.875 17.2354 21.135 16.6668C20.1095 15.5213 19.5429 14.0375 19.544 12.5C19.544 10.9253 20.1314 9.45429 21.135 8.33324C20.8732 7.76478 20.5594 7.22173 20.1977 6.71103C18.6933 7.02636 17.1255 6.77536 15.7947 6.00615C14.4629 5.238 13.4616 4.00524 12.9827 2.54427C12.3591 2.48553 11.7329 2.48428 11.1093 2.54302C10.6301 4.00419 9.62829 5.23699 8.29603 6.0049C6.96474 6.77516 5.39589 7.02662 3.89056 6.71103C3.52883 7.22129 3.21584 7.76442 2.95573 8.33324C3.98126 9.47874 4.5478 10.9625 4.54669 12.5C4.54815 14.0376 3.98156 15.5215 2.95573 16.6668C3.21752 17.2352 3.5313 17.7783 3.89306 18.289C5.39744 17.9736 6.96527 18.2246 8.29603 18.9938ZM12.0454 16.2493C11.051 16.2493 10.0973 15.8543 9.39418 15.1512C8.69104 14.448 8.29603 13.4944 8.29603 12.5C8.29603 11.5056 8.69104 10.552 9.39418 9.84882C10.0973 9.14568 11.051 8.75067 12.0454 8.75067C13.0397 8.75067 13.9934 9.14568 14.6965 9.84882C15.3997 10.552 15.7947 11.5056 15.7947 12.5C15.7947 13.4944 15.3997 14.448 14.6965 15.1512C13.9934 15.8543 13.0397 16.2493 12.0454 16.2493ZM12.0454 13.7498C12.3768 13.7498 12.6947 13.6181 12.9291 13.3837C13.1635 13.1493 13.2951 12.8315 13.2951 12.5C13.2951 12.1685 13.1635 11.8507 12.9291 11.6163C12.6947 11.3819 12.3768 11.2502 12.0454 11.2502C11.7139 11.2502 11.396 11.3819 11.1616 11.6163C10.9273 11.8507 10.7956 12.1685 10.7956 12.5C10.7956 12.8315 10.9273 13.1493 11.1616 13.3837C11.396 13.6181 11.7139 13.7498 12.0454 13.7498Z" fill="#3A3A3A"/>
</svg>
