<svg width="7" height="4" viewBox="0 0 7 4" fill="none" xmlns="http://www.w3.org/2000/svg">
<path d="M3.49605 2.38419e-07C3.57967 2.38419e-07 3.65805 0.0127981 3.73121 0.0383942C3.80438 0.0635839 3.87231 0.10665 3.93502 0.167593L6.83533 2.98621C6.9503 3.09794 7.00507 3.2377 6.99963 3.4055C6.99462 3.57289 6.93462 3.71245 6.81966 3.82418C6.70469 3.93591 6.55837 3.99177 6.38069 3.99177C6.20301 3.99177 6.05669 3.93591 5.94172 3.82418L3.49605 1.4474L1.03471 3.83941C0.91974 3.95114 0.775926 4.00457 0.603265 3.99969C0.431023 3.99441 0.28742 3.93591 0.172452 3.82418C0.0574851 3.71245 4.76837e-07 3.57025 4.76837e-07 3.39758C4.76837e-07 3.2249 0.0574851 3.0827 0.172452 2.97098L3.05709 0.167593C3.1198 0.10665 3.18773 0.0635839 3.26089 0.0383942C3.33405 0.0127981 3.41244 2.38419e-07 3.49605 2.38419e-07Z" fill="#3AC281"/>
</svg>
