<svg width="1097" height="262" viewBox="0 0 1097 262" fill="none" xmlns="http://www.w3.org/2000/svg">
<path d="M647.332 115.953C647.902 112.248 648.184 108.505 648.174 104.757C648.152 87.5845 642.297 70.9286 631.567 57.5203C620.837 44.112 605.871 34.747 589.12 30.9606C572.37 27.1742 554.83 29.1911 539.377 36.6806C523.923 44.1702 511.473 56.6879 504.067 72.1817C493.399 74.0352 483.623 79.3072 476.213 87.2026C468.804 95.098 464.162 105.189 462.989 115.953C451.677 119.867 442.123 127.672 436.031 137.976C429.938 148.281 427.704 160.414 429.726 172.212C431.748 184.01 437.895 194.707 447.07 202.394C456.246 210.082 467.854 214.26 479.824 214.185H631.339C643.237 214.063 654.711 209.744 663.736 201.989C672.761 194.235 678.758 183.543 680.67 171.798C682.582 160.054 680.286 148.012 674.187 137.795C668.088 127.578 658.577 119.843 647.332 115.953V115.953Z" fill="#EEF5FD"/>
<path d="M681.844 163.68C681.844 177.075 676.523 189.921 667.052 199.392C657.58 208.864 644.734 214.185 631.339 214.185H555.582V30.936C561.101 29.6503 566.75 29.0007 572.417 29C592.509 29 611.778 36.9816 625.986 51.1888C640.193 65.3961 648.174 84.6653 648.174 104.757C648.184 108.505 647.903 112.248 647.333 115.953C657.355 119.298 666.075 125.703 672.266 134.265C678.457 142.826 681.807 153.114 681.844 163.68V163.68Z" fill="#D7E2F2"/>
<path d="M586.969 170.186L561.573 148.708C560.768 148.056 559.819 147.545 558.78 147.204C556.719 146.488 554.407 146.488 552.346 147.204C551.307 147.545 550.358 148.056 549.553 148.708L524.157 170.186C522.563 171.534 521.667 173.363 521.667 175.27C521.667 177.176 522.563 179.005 524.157 180.353C525.751 181.701 527.913 182.458 530.167 182.458C532.422 182.458 534.584 181.701 536.178 180.353L547.098 171.045V254.024C547.098 255.922 547.99 257.744 549.577 259.086C551.165 260.429 553.318 261.183 555.563 261.183C557.808 261.183 559.961 260.429 561.549 259.086C563.136 257.744 564.028 255.922 564.028 254.024V171.045L574.948 180.353C575.735 181.024 576.672 181.556 577.703 181.92C578.735 182.283 579.841 182.471 580.959 182.471C582.076 182.471 583.183 182.283 584.214 181.92C585.246 181.556 586.182 181.024 586.969 180.353C587.762 179.687 588.392 178.895 588.822 178.023C589.252 177.15 589.473 176.215 589.473 175.27C589.473 174.324 589.252 173.389 588.822 172.516C588.392 171.644 587.762 170.852 586.969 170.186V170.186Z" fill="#4264D0"/>
<path d="M586.97 180.378C586.183 181.049 585.247 181.581 584.215 181.945C583.184 182.308 582.078 182.495 580.961 182.495C579.843 182.495 578.737 182.308 577.706 181.945C576.674 181.581 575.738 181.049 574.952 180.378L564.034 171.074V254.026C564.034 255.924 563.142 257.745 561.555 259.087C559.968 260.429 557.815 261.183 555.57 261.183V146.667C556.676 146.679 557.769 146.873 558.786 147.24C559.825 147.581 560.774 148.091 561.579 148.743L586.97 170.215C587.763 170.88 588.392 171.672 588.822 172.544C589.252 173.416 589.473 174.351 589.473 175.296C589.473 176.241 589.252 177.177 588.822 178.049C588.392 178.921 587.763 179.713 586.97 180.378Z" fill="#3552AE"/>
<path d="M24.6131 4.56513L4.47511 12.7824C2.0138 13.7868 0.821732 16.6223 1.82607 19.0836L16.4346 54.8845C17.439 57.3458 20.2745 58.5378 22.7358 57.5335L49.5865 46.5771C52.0478 45.5727 53.2398 42.7372 52.2355 40.2759L40.366 11.1877L24.6131 4.56513ZM20.9097 53.0584L6.30118 17.2576L24.2016 9.95327L27.8537 18.9035L36.804 15.2513L47.7604 42.102L20.9097 53.0584ZM34.1549 21.5525L38.7201 32.7403C40.7379 37.6853 38.367 43.3248 33.422 45.3426C28.477 47.3604 22.8375 44.9896 20.8197 40.0446L14.8849 25.5005C14.5638 24.7166 14.411 23.8739 14.4367 23.0272C14.4623 22.1804 14.6657 21.3486 15.0337 20.5855C15.4017 19.8225 15.926 19.1454 16.5726 18.5981C17.2193 18.0509 17.9738 17.6457 18.7871 17.409C21.8146 16.5129 25.0045 18.3174 26.2005 21.2486L32.0074 35.4794L27.5323 37.3055L21.5976 22.7614C21.342 22.1348 20.6488 21.8435 20.0223 22.0991C19.3958 22.3548 19.1044 23.0479 19.36 23.6744L25.2948 38.2185C26.2991 40.6798 29.1347 41.8719 31.596 40.8675C34.0573 39.8632 35.2493 37.0277 34.245 34.5664L29.6798 23.3786L34.1549 21.5525Z" fill="#D8E4F1"/>
<path d="M789.23 222.547C787.953 222.178 786.991 221.409 786.345 220.238C785.697 219.065 785.558 217.84 785.927 216.563L793.969 188.7C794.337 187.423 795.108 186.462 796.28 185.816C797.452 185.168 798.676 185.028 799.953 185.397L813.884 189.418L817.188 195.402L835.763 200.763C837.04 201.132 838.002 201.903 838.649 203.076C839.296 204.247 839.435 205.471 839.066 206.748L832.364 229.966C831.996 231.243 831.226 232.206 830.054 232.854C828.882 233.5 827.657 233.638 826.38 233.27L789.23 222.547ZM798.612 190.041L790.57 217.903L827.72 228.626L834.422 205.407L813.932 199.493L810.628 193.509L798.612 190.041ZM798.612 190.041L790.57 217.903L798.612 190.041Z" fill="#D8E4F1"/>
<path d="M273.013 92.5097C275.586 94.0935 278.327 94.5399 281.236 93.849C284.145 93.1558 286.392 91.5231 287.976 88.9507C289.559 86.3783 290.006 83.6373 289.315 80.7278C288.622 77.8187 286.989 75.5723 284.417 73.9886C281.844 72.4048 279.103 71.9584 276.194 72.6493C273.285 73.3424 271.038 74.9752 269.454 77.5476C267.871 80.12 267.424 82.8609 268.115 85.7705C268.808 88.6795 270.441 90.9259 273.013 92.5097ZM274.28 90.4518L275.058 84.1191L271.512 78.8146L277.845 79.5917L283.15 76.0465L282.372 82.3792L285.918 87.6837L279.585 86.9065L274.28 90.4518ZM252.116 89.5762C250.984 88.8794 250.263 87.8804 249.954 86.5792C249.644 85.2759 249.837 84.0583 250.534 82.9264L265.738 58.2316C266.435 57.0998 267.435 56.3795 268.737 56.0709C270.039 55.76 271.256 55.953 272.388 56.6498L278.87 60.6409L285.211 58.8691L297.559 66.4712L298.832 72.9309L305.314 76.922C306.446 77.6189 307.167 78.619 307.477 79.9224C307.787 81.2235 307.593 82.44 306.896 83.5719L291.692 108.267C290.995 109.399 289.996 110.12 288.694 110.431C287.391 110.739 286.174 110.545 285.042 109.848L252.116 89.5762ZM287.576 105.733L302.78 81.0378L294.446 75.9064L293.224 69.4783L284.478 64.0935L278.188 65.897L269.854 60.7656L254.65 85.4604L287.576 105.733Z" fill="#D8E4F1"/>
<path d="M350.833 178.833H331.5C328.842 178.833 326.691 181.008 326.691 183.667L326.667 222.333C326.667 224.992 328.817 227.167 331.476 227.167H360.5C363.158 227.167 365.333 224.992 365.333 222.333V193.333L350.833 178.833ZM331.5 222.333V183.667H348.417V195.75H360.5V222.333H331.5Z" fill="#D8E4F1"/>
<path d="M1010.13 23.416L993.092 14.2832C990.749 13.0274 987.826 13.9284 986.57 16.2715L968.283 50.3405C967.027 52.6835 967.896 55.6166 970.239 56.8724L995.82 70.583C998.163 71.8388 1001.11 70.9492 1002.36 68.6062L1016.06 43.0458L1010.13 23.416ZM972.543 52.6237L990.809 18.5433L1005.72 26.5345L1000.01 37.1846L1010.66 42.8926L998.104 66.323L972.543 52.6237Z" fill="#D8E4F1"/>
<path d="M128.912 209.864L119.853 213.236M117.324 206.442L124.118 203.912M154.619 223.502L141.898 220.501L137.922 227.139L123.226 222.295M143.055 209.756C141.554 210.315 139.891 210.255 138.434 209.588C136.977 208.921 135.844 207.703 135.285 206.202C134.726 204.7 134.787 203.038 135.453 201.581C136.12 200.124 137.338 198.991 138.839 198.432C140.341 197.873 142.003 197.933 143.46 198.6C144.918 199.266 146.05 200.484 146.609 201.986C147.168 203.488 147.108 205.15 146.441 206.607C145.775 208.064 144.557 209.197 143.055 209.756Z" stroke="#D8E4F1" stroke-width="4" stroke-linecap="round" stroke-linejoin="round"/>
<path d="M122.671 241.584L108.506 203.536C108.372 203.175 108.386 202.776 108.546 202.427C108.706 202.077 108.998 201.805 109.359 201.671L147.408 187.506C147.768 187.372 148.167 187.386 148.517 187.546C148.867 187.706 149.138 187.999 149.273 188.359L163.437 226.408C163.572 226.768 163.557 227.167 163.397 227.517C163.237 227.867 162.945 228.138 162.584 228.273L124.536 242.437C124.175 242.572 123.776 242.557 123.427 242.397C123.077 242.237 122.805 241.945 122.671 241.584V241.584Z" stroke="#D8E4F1" stroke-width="4"/>
<path d="M1059.91 216.864L1050.85 220.236M1048.32 213.442L1055.12 210.912M1085.62 230.502L1072.9 227.501L1068.92 234.139L1054.23 229.295M1074.06 216.756C1072.55 217.315 1070.89 217.255 1069.43 216.588C1067.98 215.921 1066.84 214.703 1066.29 213.202C1065.73 211.7 1065.79 210.038 1066.45 208.581C1067.12 207.124 1068.34 205.991 1069.84 205.432C1071.34 204.873 1073 204.933 1074.46 205.6C1075.92 206.266 1077.05 207.484 1077.61 208.986C1078.17 210.488 1078.11 212.15 1077.44 213.607C1076.77 215.064 1075.56 216.197 1074.06 216.756Z" stroke="#D8E4F1" stroke-width="4" stroke-linecap="round" stroke-linejoin="round"/>
<path d="M1053.67 248.584L1039.51 210.536C1039.37 210.175 1039.39 209.776 1039.55 209.427C1039.71 209.077 1040 208.805 1040.36 208.671L1078.41 194.506C1078.77 194.372 1079.17 194.386 1079.52 194.546C1079.87 194.706 1080.14 194.999 1080.27 195.359L1094.44 233.408C1094.57 233.768 1094.56 234.167 1094.4 234.517C1094.24 234.867 1093.94 235.138 1093.58 235.273L1055.54 249.437C1055.18 249.572 1054.78 249.557 1054.43 249.397C1054.08 249.237 1053.8 248.945 1053.67 248.584V248.584Z" stroke="#D8E4F1" stroke-width="4"/>
</svg>
