<svg width="1244" height="444" viewBox="0 0 1244 444" fill="none" xmlns="http://www.w3.org/2000/svg">
<rect x="1.5" y="1.5" width="1241" height="441" rx="18.5" fill="white" stroke="#C5C5C5" stroke-width="3" stroke-dasharray="20 20"/>
<path d="M714.332 161.953C714.902 158.248 715.184 154.505 715.174 150.757C715.152 133.585 709.297 116.929 698.567 103.52C687.837 90.112 672.871 80.747 656.12 76.9606C639.37 73.1742 621.83 75.1911 606.377 82.6806C590.923 90.1702 578.473 102.688 571.067 118.182C560.399 120.035 550.623 125.307 543.213 133.203C535.804 141.098 531.162 151.189 529.989 161.953C518.677 165.867 509.123 173.672 503.031 183.976C496.938 194.281 494.704 206.414 496.726 218.212C498.748 230.01 504.895 240.707 514.07 248.394C523.246 256.082 534.854 260.26 546.824 260.185H698.339C710.237 260.063 721.711 255.744 730.736 247.989C739.761 240.235 745.758 229.543 747.67 217.798C749.582 206.054 747.286 194.012 741.187 183.795C735.088 173.578 725.577 165.843 714.332 161.953Z" fill="#EEF5FD"/>
<path d="M748.844 209.68C748.844 223.075 743.523 235.921 734.052 245.392C724.58 254.864 711.734 260.185 698.339 260.185H622.582V76.936C628.101 75.6503 633.75 75.0007 639.417 75C659.509 75 678.778 82.9816 692.986 97.1888C707.193 111.396 715.174 130.665 715.174 150.757C715.184 154.505 714.903 158.248 714.333 161.953C724.355 165.298 733.075 171.703 739.266 180.265C745.457 188.826 748.807 199.114 748.844 209.68Z" fill="#D7E2F2"/>
<path d="M653.969 216.186L628.573 194.708C627.768 194.056 626.819 193.545 625.78 193.204C623.719 192.488 621.407 192.488 619.346 193.204C618.307 193.545 617.358 194.056 616.553 194.708L591.157 216.186C589.563 217.534 588.667 219.363 588.667 221.27C588.667 223.176 589.563 225.005 591.157 226.353C592.751 227.701 594.913 228.458 597.167 228.458C599.422 228.458 601.584 227.701 603.178 226.353L614.098 217.045V300.024C614.098 301.922 614.99 303.744 616.577 305.086C618.165 306.429 620.318 307.183 622.563 307.183C624.808 307.183 626.961 306.429 628.549 305.086C630.136 303.744 631.028 301.922 631.028 300.024V217.045L641.948 226.353C642.735 227.024 643.672 227.556 644.703 227.92C645.735 228.283 646.841 228.471 647.959 228.471C649.076 228.471 650.183 228.283 651.214 227.92C652.246 227.556 653.182 227.024 653.969 226.353C654.762 225.687 655.392 224.895 655.822 224.023C656.252 223.15 656.473 222.215 656.473 221.27C656.473 220.324 656.252 219.389 655.822 218.516C655.392 217.644 654.762 216.852 653.969 216.186Z" fill="#4264D0"/>
<path d="M653.97 226.378C653.183 227.049 652.247 227.581 651.215 227.945C650.184 228.308 649.078 228.495 647.961 228.495C646.843 228.495 645.737 228.308 644.706 227.945C643.674 227.581 642.738 227.049 641.952 226.378L631.034 217.074V300.026C631.034 301.924 630.142 303.745 628.555 305.087C626.968 306.429 624.815 307.183 622.57 307.183V192.667C623.676 192.679 624.769 192.873 625.786 193.24C626.825 193.581 627.774 194.091 628.579 194.743L653.97 216.215C654.763 216.88 655.392 217.672 655.822 218.544C656.252 219.416 656.473 220.351 656.473 221.296C656.473 222.241 656.252 223.177 655.822 224.049C655.392 224.921 654.763 225.713 653.97 226.378Z" fill="#3552AE"/>
<path d="M445.16 353.27C445.16 355.199 444.801 356.812 444.082 358.109C443.363 359.398 442.32 360.371 440.953 361.027C439.586 361.676 437.938 362 436.008 362H431.25V344.867H436.523C438.297 344.867 439.828 345.188 441.117 345.828C442.406 346.461 443.402 347.402 444.105 348.652C444.809 349.895 445.16 351.434 445.16 353.27ZM442.23 353.352C442.23 351.945 442.008 350.789 441.562 349.883C441.125 348.977 440.477 348.305 439.617 347.867C438.766 347.422 437.715 347.199 436.465 347.199H434.062V359.645H436.055C438.125 359.645 439.672 359.117 440.695 358.062C441.719 357.008 442.23 355.438 442.23 353.352ZM455.145 348.781C455.363 348.781 455.602 348.793 455.859 348.816C456.117 348.84 456.34 348.871 456.527 348.91L456.27 351.488C456.105 351.441 455.902 351.406 455.66 351.383C455.426 351.359 455.215 351.348 455.027 351.348C454.535 351.348 454.066 351.43 453.621 351.594C453.176 351.75 452.781 351.992 452.438 352.32C452.094 352.641 451.824 353.043 451.629 353.527C451.434 354.012 451.336 354.574 451.336 355.215V362H448.57V349.027H450.727L451.102 351.312H451.23C451.488 350.852 451.809 350.43 452.191 350.047C452.574 349.664 453.012 349.359 453.504 349.133C454.004 348.898 454.551 348.781 455.145 348.781ZM464.016 348.781C465.656 348.781 466.895 349.145 467.73 349.871C468.574 350.598 468.996 351.73 468.996 353.27V362H467.039L466.512 360.16H466.418C466.051 360.629 465.672 361.016 465.281 361.32C464.891 361.625 464.438 361.852 463.922 362C463.414 362.156 462.793 362.234 462.059 362.234C461.285 362.234 460.594 362.094 459.984 361.812C459.375 361.523 458.895 361.086 458.543 360.5C458.191 359.914 458.016 359.172 458.016 358.273C458.016 356.938 458.512 355.934 459.504 355.262C460.504 354.59 462.012 354.219 464.027 354.148L466.277 354.066V353.387C466.277 352.488 466.066 351.848 465.645 351.465C465.23 351.082 464.645 350.891 463.887 350.891C463.238 350.891 462.609 350.984 462 351.172C461.391 351.359 460.797 351.59 460.219 351.863L459.328 349.918C459.961 349.582 460.68 349.309 461.484 349.098C462.297 348.887 463.141 348.781 464.016 348.781ZM466.266 355.801L464.59 355.859C463.215 355.906 462.25 356.141 461.695 356.562C461.141 356.984 460.863 357.562 460.863 358.297C460.863 358.938 461.055 359.406 461.438 359.703C461.82 359.992 462.324 360.137 462.949 360.137C463.902 360.137 464.691 359.867 465.316 359.328C465.949 358.781 466.266 357.98 466.266 356.926V355.801ZM476.555 367.766C474.797 367.766 473.449 367.449 472.512 366.816C471.574 366.184 471.105 365.297 471.105 364.156C471.105 363.359 471.355 362.684 471.855 362.129C472.355 361.582 473.07 361.203 474 360.992C473.648 360.836 473.344 360.594 473.086 360.266C472.836 359.93 472.711 359.559 472.711 359.152C472.711 358.668 472.848 358.254 473.121 357.91C473.395 357.566 473.805 357.234 474.352 356.914C473.672 356.625 473.125 356.156 472.711 355.508C472.305 354.852 472.102 354.082 472.102 353.199C472.102 352.262 472.301 351.465 472.699 350.809C473.098 350.145 473.68 349.641 474.445 349.297C475.211 348.945 476.137 348.77 477.223 348.77C477.457 348.77 477.711 348.785 477.984 348.816C478.266 348.84 478.523 348.871 478.758 348.91C479 348.941 479.184 348.977 479.309 349.016H483.797V350.551L481.594 350.961C481.805 351.258 481.973 351.598 482.098 351.98C482.223 352.355 482.285 352.766 482.285 353.211C482.285 354.555 481.82 355.613 480.891 356.387C479.969 357.152 478.695 357.535 477.07 357.535C476.68 357.52 476.301 357.488 475.934 357.441C475.652 357.613 475.438 357.805 475.289 358.016C475.141 358.219 475.066 358.449 475.066 358.707C475.066 358.918 475.141 359.09 475.289 359.223C475.438 359.348 475.656 359.441 475.945 359.504C476.242 359.566 476.602 359.598 477.023 359.598H479.262C480.684 359.598 481.77 359.898 482.52 360.5C483.27 361.102 483.645 361.984 483.645 363.148C483.645 364.625 483.035 365.762 481.816 366.559C480.598 367.363 478.844 367.766 476.555 367.766ZM476.66 365.832C477.621 365.832 478.43 365.738 479.086 365.551C479.742 365.363 480.238 365.094 480.574 364.742C480.91 364.398 481.078 363.988 481.078 363.512C481.078 363.09 480.973 362.766 480.762 362.539C480.551 362.312 480.234 362.156 479.812 362.07C479.391 361.984 478.867 361.941 478.242 361.941H476.203C475.695 361.941 475.246 362.02 474.855 362.176C474.465 362.34 474.16 362.574 473.941 362.879C473.73 363.184 473.625 363.551 473.625 363.98C473.625 364.574 473.887 365.031 474.41 365.352C474.941 365.672 475.691 365.832 476.66 365.832ZM477.199 355.73C478.004 355.73 478.602 355.512 478.992 355.074C479.383 354.629 479.578 354.004 479.578 353.199C479.578 352.324 479.375 351.668 478.969 351.23C478.57 350.793 477.977 350.574 477.188 350.574C476.414 350.574 475.824 350.797 475.418 351.242C475.02 351.688 474.82 352.348 474.82 353.223C474.82 354.012 475.02 354.629 475.418 355.074C475.824 355.512 476.418 355.73 477.199 355.73ZM497.801 344.609C498.684 344.609 499.457 344.754 500.121 345.043C500.793 345.332 501.316 345.754 501.691 346.309C502.066 346.855 502.254 347.523 502.254 348.312C502.254 349.367 501.926 350.258 501.27 350.984C500.613 351.711 499.785 352.359 498.785 352.93L502.828 356.867C503.211 356.344 503.527 355.77 503.777 355.145C504.027 354.512 504.242 353.848 504.422 353.152H507.27C507.027 354.121 506.691 355.078 506.262 356.023C505.832 356.961 505.289 357.82 504.633 358.602L508.113 362H504.586L502.852 360.301C502.367 360.691 501.848 361.031 501.293 361.32C500.746 361.609 500.148 361.836 499.5 362C498.852 362.156 498.137 362.234 497.355 362.234C496.16 362.234 495.129 362.043 494.262 361.66C493.395 361.277 492.727 360.73 492.258 360.02C491.797 359.301 491.566 358.449 491.566 357.465C491.566 356.645 491.703 355.941 491.977 355.355C492.258 354.762 492.656 354.242 493.172 353.797C493.688 353.344 494.305 352.914 495.023 352.508C494.633 352.062 494.293 351.629 494.004 351.207C493.715 350.785 493.492 350.352 493.336 349.906C493.188 349.453 493.113 348.969 493.113 348.453C493.113 347.656 493.309 346.973 493.699 346.402C494.09 345.824 494.637 345.383 495.34 345.078C496.043 344.766 496.863 344.609 497.801 344.609ZM496.652 354.184C496.199 354.473 495.809 354.766 495.48 355.062C495.152 355.352 494.898 355.672 494.719 356.023C494.547 356.375 494.461 356.785 494.461 357.254C494.461 358.059 494.742 358.695 495.305 359.164C495.875 359.633 496.609 359.867 497.508 359.867C498.297 359.867 498.988 359.75 499.582 359.516C500.184 359.273 500.707 358.973 501.152 358.613L496.652 354.184ZM497.754 346.789C497.199 346.789 496.719 346.934 496.312 347.223C495.914 347.512 495.715 347.961 495.715 348.57C495.715 349.062 495.844 349.527 496.102 349.965C496.367 350.395 496.734 350.859 497.203 351.359C498.023 350.906 498.633 350.461 499.031 350.023C499.438 349.586 499.641 349.078 499.641 348.5C499.641 347.953 499.457 347.531 499.09 347.234C498.723 346.938 498.277 346.789 497.754 346.789ZM530.566 353.27C530.566 355.199 530.207 356.812 529.488 358.109C528.77 359.398 527.727 360.371 526.359 361.027C524.992 361.676 523.344 362 521.414 362H516.656V344.867H521.93C523.703 344.867 525.234 345.188 526.523 345.828C527.812 346.461 528.809 347.402 529.512 348.652C530.215 349.895 530.566 351.434 530.566 353.27ZM527.637 353.352C527.637 351.945 527.414 350.789 526.969 349.883C526.531 348.977 525.883 348.305 525.023 347.867C524.172 347.422 523.121 347.199 521.871 347.199H519.469V359.645H521.461C523.531 359.645 525.078 359.117 526.102 358.062C527.125 357.008 527.637 355.438 527.637 353.352ZM540.551 348.781C540.77 348.781 541.008 348.793 541.266 348.816C541.523 348.84 541.746 348.871 541.934 348.91L541.676 351.488C541.512 351.441 541.309 351.406 541.066 351.383C540.832 351.359 540.621 351.348 540.434 351.348C539.941 351.348 539.473 351.43 539.027 351.594C538.582 351.75 538.188 351.992 537.844 352.32C537.5 352.641 537.23 353.043 537.035 353.527C536.84 354.012 536.742 354.574 536.742 355.215V362H533.977V349.027H536.133L536.508 351.312H536.637C536.895 350.852 537.215 350.43 537.598 350.047C537.98 349.664 538.418 349.359 538.91 349.133C539.41 348.898 539.957 348.781 540.551 348.781ZM555.82 355.484C555.82 356.562 555.68 357.52 555.398 358.355C555.117 359.191 554.707 359.898 554.168 360.477C553.629 361.047 552.98 361.484 552.223 361.789C551.465 362.086 550.609 362.234 549.656 362.234C548.766 362.234 547.949 362.086 547.207 361.789C546.465 361.484 545.82 361.047 545.273 360.477C544.734 359.898 544.316 359.191 544.02 358.355C543.723 357.52 543.574 356.562 543.574 355.484C543.574 354.055 543.82 352.844 544.312 351.852C544.812 350.852 545.523 350.09 546.445 349.566C547.367 349.043 548.465 348.781 549.738 348.781C550.934 348.781 551.988 349.043 552.902 349.566C553.816 350.09 554.531 350.852 555.047 351.852C555.562 352.852 555.82 354.062 555.82 355.484ZM546.41 355.484C546.41 356.43 546.523 357.238 546.75 357.91C546.984 358.582 547.344 359.098 547.828 359.457C548.312 359.809 548.938 359.984 549.703 359.984C550.469 359.984 551.094 359.809 551.578 359.457C552.062 359.098 552.418 358.582 552.645 357.91C552.871 357.238 552.984 356.43 552.984 355.484C552.984 354.539 552.871 353.738 552.645 353.082C552.418 352.418 552.062 351.914 551.578 351.57C551.094 351.219 550.465 351.043 549.691 351.043C548.551 351.043 547.719 351.426 547.195 352.191C546.672 352.957 546.41 354.055 546.41 355.484ZM565.641 348.781C567.18 348.781 568.414 349.344 569.344 350.469C570.281 351.594 570.75 353.266 570.75 355.484C570.75 356.953 570.531 358.191 570.094 359.199C569.664 360.199 569.059 360.957 568.277 361.473C567.504 361.98 566.602 362.234 565.57 362.234C564.914 362.234 564.344 362.148 563.859 361.977C563.375 361.805 562.961 361.582 562.617 361.309C562.273 361.027 561.984 360.723 561.75 360.395H561.586C561.625 360.707 561.66 361.055 561.691 361.438C561.73 361.812 561.75 362.156 561.75 362.469V367.754H558.984V349.027H561.234L561.621 350.82H561.75C561.992 350.453 562.285 350.113 562.629 349.801C562.98 349.488 563.402 349.242 563.895 349.062C564.395 348.875 564.977 348.781 565.641 348.781ZM564.902 351.031C564.145 351.031 563.535 351.184 563.074 351.488C562.621 351.785 562.289 352.234 562.078 352.836C561.875 353.438 561.766 354.191 561.75 355.098V355.484C561.75 356.445 561.848 357.262 562.043 357.934C562.246 358.598 562.578 359.105 563.039 359.457C563.508 359.801 564.141 359.973 564.938 359.973C565.609 359.973 566.164 359.789 566.602 359.422C567.047 359.055 567.379 358.531 567.598 357.852C567.816 357.172 567.926 356.371 567.926 355.449C567.926 354.051 567.676 352.965 567.176 352.191C566.684 351.418 565.926 351.031 564.902 351.031ZM576.715 359.211L576.879 359.48C576.738 360.043 576.559 360.648 576.34 361.297C576.121 361.945 575.883 362.594 575.625 363.242C575.367 363.898 575.105 364.516 574.84 365.094H572.824C572.988 364.461 573.145 363.797 573.293 363.102C573.449 362.414 573.59 361.734 573.715 361.062C573.848 360.383 573.953 359.766 574.031 359.211H576.715ZM598.195 355.484C598.195 356.562 598.055 357.52 597.773 358.355C597.492 359.191 597.082 359.898 596.543 360.477C596.004 361.047 595.355 361.484 594.598 361.789C593.84 362.086 592.984 362.234 592.031 362.234C591.141 362.234 590.324 362.086 589.582 361.789C588.84 361.484 588.195 361.047 587.648 360.477C587.109 359.898 586.691 359.191 586.395 358.355C586.098 357.52 585.949 356.562 585.949 355.484C585.949 354.055 586.195 352.844 586.688 351.852C587.188 350.852 587.898 350.09 588.82 349.566C589.742 349.043 590.84 348.781 592.113 348.781C593.309 348.781 594.363 349.043 595.277 349.566C596.191 350.09 596.906 350.852 597.422 351.852C597.938 352.852 598.195 354.062 598.195 355.484ZM588.785 355.484C588.785 356.43 588.898 357.238 589.125 357.91C589.359 358.582 589.719 359.098 590.203 359.457C590.688 359.809 591.312 359.984 592.078 359.984C592.844 359.984 593.469 359.809 593.953 359.457C594.438 359.098 594.793 358.582 595.02 357.91C595.246 357.238 595.359 356.43 595.359 355.484C595.359 354.539 595.246 353.738 595.02 353.082C594.793 352.418 594.438 351.914 593.953 351.57C593.469 351.219 592.84 351.043 592.066 351.043C590.926 351.043 590.094 351.426 589.57 352.191C589.047 352.957 588.785 354.055 588.785 355.484ZM607.934 348.781C608.152 348.781 608.391 348.793 608.648 348.816C608.906 348.84 609.129 348.871 609.316 348.91L609.059 351.488C608.895 351.441 608.691 351.406 608.449 351.383C608.215 351.359 608.004 351.348 607.816 351.348C607.324 351.348 606.855 351.43 606.41 351.594C605.965 351.75 605.57 351.992 605.227 352.32C604.883 352.641 604.613 353.043 604.418 353.527C604.223 354.012 604.125 354.574 604.125 355.215V362H601.359V349.027H603.516L603.891 351.312H604.02C604.277 350.852 604.598 350.43 604.98 350.047C605.363 349.664 605.801 349.359 606.293 349.133C606.793 348.898 607.34 348.781 607.934 348.781ZM707.285 349.027H710.285L712.945 356.434C713.062 356.77 713.168 357.102 713.262 357.43C713.363 357.75 713.449 358.066 713.52 358.379C713.598 358.691 713.66 359.004 713.707 359.316H713.777C713.855 358.91 713.965 358.457 714.105 357.957C714.254 357.449 714.418 356.941 714.598 356.434L717.152 349.027H720.117L714.551 363.781C714.23 364.625 713.836 365.344 713.367 365.938C712.906 366.539 712.359 366.992 711.727 367.297C711.094 367.609 710.371 367.766 709.559 367.766C709.168 367.766 708.828 367.742 708.539 367.695C708.25 367.656 708.004 367.613 707.801 367.566V365.363C707.965 365.402 708.172 365.438 708.422 365.469C708.672 365.5 708.93 365.516 709.195 365.516C709.688 365.516 710.113 365.418 710.473 365.223C710.832 365.027 711.137 364.75 711.387 364.391C711.637 364.039 711.844 363.637 712.008 363.184L712.465 361.965L707.285 349.027ZM733.57 355.484C733.57 356.562 733.43 357.52 733.148 358.355C732.867 359.191 732.457 359.898 731.918 360.477C731.379 361.047 730.73 361.484 729.973 361.789C729.215 362.086 728.359 362.234 727.406 362.234C726.516 362.234 725.699 362.086 724.957 361.789C724.215 361.484 723.57 361.047 723.023 360.477C722.484 359.898 722.066 359.191 721.77 358.355C721.473 357.52 721.324 356.562 721.324 355.484C721.324 354.055 721.57 352.844 722.062 351.852C722.562 350.852 723.273 350.09 724.195 349.566C725.117 349.043 726.215 348.781 727.488 348.781C728.684 348.781 729.738 349.043 730.652 349.566C731.566 350.09 732.281 350.852 732.797 351.852C733.312 352.852 733.57 354.062 733.57 355.484ZM724.16 355.484C724.16 356.43 724.273 357.238 724.5 357.91C724.734 358.582 725.094 359.098 725.578 359.457C726.062 359.809 726.688 359.984 727.453 359.984C728.219 359.984 728.844 359.809 729.328 359.457C729.812 359.098 730.168 358.582 730.395 357.91C730.621 357.238 730.734 356.43 730.734 355.484C730.734 354.539 730.621 353.738 730.395 353.082C730.168 352.418 729.812 351.914 729.328 351.57C728.844 351.219 728.215 351.043 727.441 351.043C726.301 351.043 725.469 351.426 724.945 352.191C724.422 352.957 724.16 354.055 724.16 355.484ZM748.043 349.027V362H745.875L745.5 360.254H745.348C745.074 360.699 744.727 361.07 744.305 361.367C743.883 361.656 743.414 361.871 742.898 362.012C742.383 362.16 741.84 362.234 741.27 362.234C740.293 362.234 739.457 362.07 738.762 361.742C738.074 361.406 737.547 360.891 737.18 360.195C736.812 359.5 736.629 358.602 736.629 357.5V349.027H739.395V356.984C739.395 357.992 739.598 358.746 740.004 359.246C740.418 359.746 741.059 359.996 741.926 359.996C742.762 359.996 743.426 359.824 743.918 359.48C744.41 359.137 744.758 358.629 744.961 357.957C745.172 357.285 745.277 356.461 745.277 355.484V349.027H748.043ZM758.566 348.781C758.785 348.781 759.023 348.793 759.281 348.816C759.539 348.84 759.762 348.871 759.949 348.91L759.691 351.488C759.527 351.441 759.324 351.406 759.082 351.383C758.848 351.359 758.637 351.348 758.449 351.348C757.957 351.348 757.488 351.43 757.043 351.594C756.598 351.75 756.203 351.992 755.859 352.32C755.516 352.641 755.246 353.043 755.051 353.527C754.855 354.012 754.758 354.574 754.758 355.215V362H751.992V349.027H754.148L754.523 351.312H754.652C754.91 350.852 755.23 350.43 755.613 350.047C755.996 349.664 756.434 349.359 756.926 349.133C757.426 348.898 757.973 348.781 758.566 348.781ZM775.066 351.125H771.914V362H769.16V351.125H767.039V349.801L769.16 348.992V348.09C769.16 346.988 769.332 346.113 769.676 345.465C770.027 344.816 770.527 344.352 771.176 344.07C771.832 343.781 772.613 343.637 773.52 343.637C774.113 343.637 774.656 343.688 775.148 343.789C775.641 343.883 776.055 343.992 776.391 344.117L775.676 346.203C775.41 346.117 775.113 346.039 774.785 345.969C774.457 345.891 774.105 345.852 773.73 345.852C773.105 345.852 772.645 346.047 772.348 346.438C772.059 346.828 771.914 347.398 771.914 348.148V349.027H775.066V351.125ZM780.023 349.027V362H777.27V349.027H780.023ZM778.664 344.059C779.086 344.059 779.449 344.172 779.754 344.398C780.066 344.625 780.223 345.016 780.223 345.57C780.223 346.117 780.066 346.508 779.754 346.742C779.449 346.969 779.086 347.082 778.664 347.082C778.227 347.082 777.855 346.969 777.551 346.742C777.254 346.508 777.105 346.117 777.105 345.57C777.105 345.016 777.254 344.625 777.551 344.398C777.855 344.172 778.227 344.059 778.664 344.059ZM786.727 362H783.961V343.766H786.727V362ZM795.832 348.781C796.988 348.781 797.98 349.02 798.809 349.496C799.637 349.973 800.273 350.648 800.719 351.523C801.164 352.398 801.387 353.445 801.387 354.664V356.141H792.727C792.758 357.398 793.094 358.367 793.734 359.047C794.383 359.727 795.289 360.066 796.453 360.066C797.281 360.066 798.023 359.988 798.68 359.832C799.344 359.668 800.027 359.43 800.73 359.117V361.355C800.082 361.66 799.422 361.883 798.75 362.023C798.078 362.164 797.273 362.234 796.336 362.234C795.062 362.234 793.941 361.988 792.973 361.496C792.012 360.996 791.258 360.254 790.711 359.27C790.172 358.285 789.902 357.062 789.902 355.602C789.902 354.148 790.148 352.914 790.641 351.898C791.133 350.883 791.824 350.109 792.715 349.578C793.605 349.047 794.645 348.781 795.832 348.781ZM795.832 350.855C794.965 350.855 794.262 351.137 793.723 351.699C793.191 352.262 792.879 353.086 792.785 354.172H798.691C798.684 353.523 798.574 352.949 798.363 352.449C798.16 351.949 797.848 351.559 797.426 351.277C797.012 350.996 796.48 350.855 795.832 350.855ZM813.211 358.297C813.211 359.148 813.004 359.867 812.59 360.453C812.176 361.039 811.57 361.484 810.773 361.789C809.984 362.086 809.016 362.234 807.867 362.234C806.961 362.234 806.18 362.168 805.523 362.035C804.875 361.91 804.262 361.715 803.684 361.449V359.07C804.301 359.359 804.992 359.609 805.758 359.82C806.531 360.031 807.262 360.137 807.949 360.137C808.855 360.137 809.508 359.996 809.906 359.715C810.305 359.426 810.504 359.043 810.504 358.566C810.504 358.285 810.422 358.035 810.258 357.816C810.102 357.59 809.805 357.359 809.367 357.125C808.938 356.883 808.305 356.594 807.469 356.258C806.648 355.93 805.957 355.602 805.395 355.273C804.832 354.945 804.406 354.551 804.117 354.09C803.828 353.621 803.684 353.023 803.684 352.297C803.684 351.148 804.137 350.277 805.043 349.684C805.957 349.082 807.164 348.781 808.664 348.781C809.461 348.781 810.211 348.863 810.914 349.027C811.625 349.184 812.32 349.414 813 349.719L812.133 351.793C811.547 351.535 810.957 351.324 810.363 351.16C809.777 350.988 809.18 350.902 808.57 350.902C807.859 350.902 807.316 351.012 806.941 351.23C806.574 351.449 806.391 351.762 806.391 352.168C806.391 352.473 806.48 352.73 806.66 352.941C806.84 353.152 807.148 353.363 807.586 353.574C808.031 353.785 808.648 354.047 809.438 354.359C810.211 354.656 810.879 354.969 811.441 355.297C812.012 355.617 812.449 356.012 812.754 356.48C813.059 356.949 813.211 357.555 813.211 358.297Z" fill="#3C3C3C"/>
<path d="M620.707 343.766V348.16C620.707 348.668 620.691 349.168 620.66 349.66C620.637 350.145 620.613 350.523 620.59 350.797H620.707C621.059 350.234 621.547 349.762 622.172 349.379C622.805 348.988 623.613 348.793 624.598 348.793C626.137 348.793 627.375 349.359 628.312 350.492C629.25 351.617 629.719 353.285 629.719 355.496C629.719 356.965 629.504 358.199 629.074 359.199C628.645 360.199 628.039 360.957 627.258 361.473C626.484 361.98 625.574 362.234 624.527 362.234C623.543 362.234 622.746 362.055 622.137 361.695C621.535 361.328 621.062 360.902 620.719 360.418H620.52L620.016 362H617.953V343.766H620.707ZM623.871 351.031C623.09 351.031 622.469 351.188 622.008 351.5C621.555 351.812 621.227 352.281 621.023 352.906C620.82 353.523 620.715 354.309 620.707 355.262V355.508C620.707 356.953 620.934 358.059 621.387 358.824C621.848 359.59 622.684 359.973 623.895 359.973C624.855 359.973 625.594 359.586 626.109 358.812C626.625 358.031 626.883 356.914 626.883 355.461C626.883 353.992 626.625 352.887 626.109 352.145C625.602 351.402 624.855 351.031 623.871 351.031ZM639.48 348.781C639.699 348.781 639.938 348.793 640.195 348.816C640.453 348.84 640.676 348.871 640.863 348.91L640.605 351.488C640.441 351.441 640.238 351.406 639.996 351.383C639.762 351.359 639.551 351.348 639.363 351.348C638.871 351.348 638.402 351.43 637.957 351.594C637.512 351.75 637.117 351.992 636.773 352.32C636.43 352.641 636.16 353.043 635.965 353.527C635.77 354.012 635.672 354.574 635.672 355.215V362H632.906V349.027H635.062L635.438 351.312H635.566C635.824 350.852 636.145 350.43 636.527 350.047C636.91 349.664 637.348 349.359 637.84 349.133C638.34 348.898 638.887 348.781 639.48 348.781ZM654.75 355.484C654.75 356.562 654.609 357.52 654.328 358.355C654.047 359.191 653.637 359.898 653.098 360.477C652.559 361.047 651.91 361.484 651.152 361.789C650.395 362.086 649.539 362.234 648.586 362.234C647.695 362.234 646.879 362.086 646.137 361.789C645.395 361.484 644.75 361.047 644.203 360.477C643.664 359.898 643.246 359.191 642.949 358.355C642.652 357.52 642.504 356.562 642.504 355.484C642.504 354.055 642.75 352.844 643.242 351.852C643.742 350.852 644.453 350.09 645.375 349.566C646.297 349.043 647.395 348.781 648.668 348.781C649.863 348.781 650.918 349.043 651.832 349.566C652.746 350.09 653.461 350.852 653.977 351.852C654.492 352.852 654.75 354.062 654.75 355.484ZM645.34 355.484C645.34 356.43 645.453 357.238 645.68 357.91C645.914 358.582 646.273 359.098 646.758 359.457C647.242 359.809 647.867 359.984 648.633 359.984C649.398 359.984 650.023 359.809 650.508 359.457C650.992 359.098 651.348 358.582 651.574 357.91C651.801 357.238 651.914 356.43 651.914 355.484C651.914 354.539 651.801 353.738 651.574 353.082C651.348 352.418 650.992 351.914 650.508 351.57C650.023 351.219 649.395 351.043 648.621 351.043C647.48 351.043 646.648 351.426 646.125 352.191C645.602 352.957 645.34 354.055 645.34 355.484ZM668.52 361.988L666.879 355.953C666.801 355.656 666.707 355.297 666.598 354.875C666.488 354.453 666.379 354.02 666.27 353.574C666.16 353.121 666.059 352.703 665.965 352.32C665.879 351.938 665.812 351.641 665.766 351.43H665.672C665.633 351.641 665.57 351.938 665.484 352.32C665.398 352.703 665.301 353.121 665.191 353.574C665.082 354.027 664.973 354.469 664.863 354.898C664.762 355.328 664.668 355.695 664.582 356L662.859 361.988H659.836L656.203 349.016H658.992L660.68 355.461C660.789 355.898 660.895 356.371 660.996 356.879C661.105 357.387 661.199 357.871 661.277 358.332C661.355 358.793 661.414 359.172 661.453 359.469H661.547C661.578 359.258 661.621 358.992 661.676 358.672C661.73 358.344 661.793 358.004 661.863 357.652C661.934 357.293 662.004 356.957 662.074 356.645C662.145 356.324 662.211 356.066 662.273 355.871L664.266 349.016H667.277L669.188 355.871C669.273 356.168 669.367 356.543 669.469 356.996C669.57 357.441 669.66 357.891 669.738 358.344C669.824 358.789 669.879 359.16 669.902 359.457H669.996C670.027 359.191 670.082 358.832 670.16 358.379C670.246 357.918 670.344 357.43 670.453 356.914C670.562 356.391 670.676 355.906 670.793 355.461L672.516 349.016H675.258L671.602 361.988H668.52ZM686.203 358.297C686.203 359.148 685.996 359.867 685.582 360.453C685.168 361.039 684.562 361.484 683.766 361.789C682.977 362.086 682.008 362.234 680.859 362.234C679.953 362.234 679.172 362.168 678.516 362.035C677.867 361.91 677.254 361.715 676.676 361.449V359.07C677.293 359.359 677.984 359.609 678.75 359.82C679.523 360.031 680.254 360.137 680.941 360.137C681.848 360.137 682.5 359.996 682.898 359.715C683.297 359.426 683.496 359.043 683.496 358.566C683.496 358.285 683.414 358.035 683.25 357.816C683.094 357.59 682.797 357.359 682.359 357.125C681.93 356.883 681.297 356.594 680.461 356.258C679.641 355.93 678.949 355.602 678.387 355.273C677.824 354.945 677.398 354.551 677.109 354.09C676.82 353.621 676.676 353.023 676.676 352.297C676.676 351.148 677.129 350.277 678.035 349.684C678.949 349.082 680.156 348.781 681.656 348.781C682.453 348.781 683.203 348.863 683.906 349.027C684.617 349.184 685.312 349.414 685.992 349.719L685.125 351.793C684.539 351.535 683.949 351.324 683.355 351.16C682.77 350.988 682.172 350.902 681.562 350.902C680.852 350.902 680.309 351.012 679.934 351.23C679.566 351.449 679.383 351.762 679.383 352.168C679.383 352.473 679.473 352.73 679.652 352.941C679.832 353.152 680.141 353.363 680.578 353.574C681.023 353.785 681.641 354.047 682.43 354.359C683.203 354.656 683.871 354.969 684.434 355.297C685.004 355.617 685.441 356.012 685.746 356.48C686.051 356.949 686.203 357.555 686.203 358.297ZM694.348 348.781C695.504 348.781 696.496 349.02 697.324 349.496C698.152 349.973 698.789 350.648 699.234 351.523C699.68 352.398 699.902 353.445 699.902 354.664V356.141H691.242C691.273 357.398 691.609 358.367 692.25 359.047C692.898 359.727 693.805 360.066 694.969 360.066C695.797 360.066 696.539 359.988 697.195 359.832C697.859 359.668 698.543 359.43 699.246 359.117V361.355C698.598 361.66 697.938 361.883 697.266 362.023C696.594 362.164 695.789 362.234 694.852 362.234C693.578 362.234 692.457 361.988 691.488 361.496C690.527 360.996 689.773 360.254 689.227 359.27C688.688 358.285 688.418 357.062 688.418 355.602C688.418 354.148 688.664 352.914 689.156 351.898C689.648 350.883 690.34 350.109 691.23 349.578C692.121 349.047 693.16 348.781 694.348 348.781ZM694.348 350.855C693.48 350.855 692.777 351.137 692.238 351.699C691.707 352.262 691.395 353.086 691.301 354.172H697.207C697.199 353.523 697.09 352.949 696.879 352.449C696.676 351.949 696.363 351.559 695.941 351.277C695.527 350.996 694.996 350.855 694.348 350.855Z" fill="#4264D0"/>
<path d="M91.6131 50.5651L71.4751 58.7824C69.0138 59.7868 67.8217 62.6223 68.8261 65.0836L83.4346 100.884C84.439 103.346 87.2745 104.538 89.7358 103.534L116.586 92.5771C119.048 91.5727 120.24 88.7372 119.235 86.2759L107.366 57.1877L91.6131 50.5651ZM87.9097 99.0584L73.3012 63.2576L91.2016 55.9533L94.8537 64.9035L103.804 61.2513L114.76 88.102L87.9097 99.0584ZM101.155 67.5525L105.72 78.7403C107.738 83.6853 105.367 89.3248 100.422 91.3426C95.477 93.3604 89.8375 90.9896 87.8197 86.0446L81.8849 71.5005C81.5638 70.7166 81.411 69.8739 81.4367 69.0272C81.4623 68.1804 81.6657 67.3486 82.0337 66.5855C82.4017 65.8225 82.926 65.1454 83.5726 64.5981C84.2193 64.0509 84.9738 63.6457 85.7871 63.409C88.8146 62.5129 92.0045 64.3174 93.2005 67.2486L99.0074 81.4794L94.5323 83.3055L88.5976 68.7614C88.342 68.1348 87.6488 67.8435 87.0223 68.0991C86.3958 68.3548 86.1044 69.0479 86.36 69.6744L92.2948 84.2185C93.2991 86.6798 96.1347 87.8719 98.596 86.8675C101.057 85.8632 102.249 83.0277 101.245 80.5664L96.6798 69.3786L101.155 67.5525Z" fill="#D8E4F1"/>
<path d="M1026.61 349.565L1006.48 357.782C1004.01 358.787 1002.82 361.622 1003.83 364.084L1018.43 399.884C1019.44 402.346 1022.27 403.538 1024.74 402.534L1051.59 391.577C1054.05 390.573 1055.24 387.737 1054.24 385.276L1042.37 356.188L1026.61 349.565ZM1022.91 398.058L1008.3 362.258L1026.2 354.953L1029.85 363.903L1038.8 360.251L1049.76 387.102L1022.91 398.058ZM1036.15 366.553L1040.72 377.74C1042.74 382.685 1040.37 388.325 1035.42 390.343C1030.48 392.36 1024.84 389.99 1022.82 385.045L1016.88 370.5C1016.56 369.717 1016.41 368.874 1016.44 368.027C1016.46 367.18 1016.67 366.349 1017.03 365.586C1017.4 364.822 1017.93 364.145 1018.57 363.598C1019.22 363.051 1019.97 362.646 1020.79 362.409C1023.81 361.513 1027 363.317 1028.2 366.249L1034.01 380.479L1029.53 382.305L1023.6 367.761C1023.34 367.135 1022.65 366.843 1022.02 367.099C1021.4 367.355 1021.1 368.048 1021.36 368.674L1027.29 383.218C1028.3 385.68 1031.13 386.872 1033.6 385.868C1036.06 384.863 1037.25 382.028 1036.24 379.566L1031.68 368.379L1036.15 366.553Z" fill="#D8E4F1"/>
<path d="M856.23 268.547C854.953 268.178 853.991 267.409 853.345 266.238C852.697 265.065 852.558 263.84 852.927 262.563L860.969 234.7C861.337 233.423 862.108 232.462 863.28 231.816C864.452 231.168 865.676 231.028 866.953 231.397L880.884 235.418L884.188 241.402L902.763 246.763C904.04 247.132 905.002 247.903 905.649 249.076C906.296 250.247 906.435 251.471 906.066 252.748L899.364 275.966C898.996 277.243 898.226 278.206 897.054 278.854C895.882 279.5 894.657 279.638 893.38 279.27L856.23 268.547ZM865.612 236.041L857.57 263.903L894.72 274.626L901.422 251.407L880.932 245.493L877.628 239.509L865.612 236.041ZM865.612 236.041L857.57 263.903L865.612 236.041Z" fill="#D8E4F1"/>
<path d="M235.644 385.49C234.367 385.122 233.405 384.352 232.758 383.181C232.111 382.008 231.972 380.783 232.34 379.506L240.382 351.644C240.751 350.367 241.521 349.405 242.694 348.759C243.865 348.111 245.089 347.972 246.366 348.34L260.298 352.361L263.601 358.346L282.176 363.707C283.453 364.076 284.415 364.846 285.063 366.019C285.709 367.19 285.848 368.414 285.48 369.691L278.778 392.91C278.409 394.187 277.639 395.149 276.468 395.797C275.295 396.443 274.071 396.582 272.794 396.213L235.644 385.49ZM245.026 352.984L236.984 380.847L274.134 391.57L280.836 368.351L260.345 362.436L257.042 356.452L245.026 352.984ZM245.026 352.984L236.984 380.847L245.026 352.984Z" fill="#D8E4F1"/>
<path d="M340.013 138.51C342.586 140.093 345.327 140.54 348.236 139.849C351.145 139.156 353.392 137.523 354.976 134.951C356.559 132.378 357.006 129.637 356.315 126.728C355.622 123.819 353.989 121.572 351.417 119.989C348.844 118.405 346.103 117.958 343.194 118.649C340.285 119.342 338.038 120.975 336.454 123.548C334.871 126.12 334.424 128.861 335.115 131.77C335.808 134.68 337.441 136.926 340.013 138.51ZM341.28 136.452L342.058 130.119L338.512 124.815L344.845 125.592L350.15 122.046L349.372 128.379L352.918 133.684L346.585 132.907L341.28 136.452ZM319.116 135.576C317.984 134.879 317.263 133.88 316.954 132.579C316.644 131.276 316.837 130.058 317.534 128.926L332.738 104.232C333.435 103.1 334.435 102.38 335.737 102.071C337.039 101.76 338.256 101.953 339.388 102.65L345.87 106.641L352.211 104.869L364.559 112.471L365.832 118.931L372.314 122.922C373.446 123.619 374.167 124.619 374.477 125.922C374.787 127.224 374.593 128.44 373.896 129.572L358.692 154.267C357.995 155.399 356.996 156.12 355.694 156.431C354.391 156.739 353.174 156.545 352.042 155.848L319.116 135.576ZM354.576 151.733L369.78 127.038L361.446 121.906L360.224 115.478L351.478 110.094L345.188 111.897L336.854 106.766L321.65 131.46L354.576 151.733Z" fill="#D8E4F1"/>
<path d="M417.833 224.833H398.5C395.842 224.833 393.691 227.008 393.691 229.667L393.667 268.333C393.667 270.992 395.817 273.167 398.476 273.167H427.5C430.158 273.167 432.333 270.992 432.333 268.333V239.333L417.833 224.833ZM398.5 268.333V229.667H415.417V241.75H427.5V268.333H398.5Z" fill="#D8E4F1"/>
<path d="M1077.13 69.416L1060.09 60.2832C1057.75 59.0274 1054.83 59.9284 1053.57 62.2715L1035.28 96.3405C1034.03 98.6835 1034.9 101.617 1037.24 102.872L1062.82 116.583C1065.16 117.839 1068.11 116.949 1069.36 114.606L1083.06 89.0458L1077.13 69.416ZM1039.54 98.6237L1057.81 64.5433L1072.72 72.5345L1067.01 83.1846L1077.66 88.8926L1065.1 112.323L1039.54 98.6237Z" fill="#D8E4F1"/>
<path d="M195.912 255.864L186.853 259.236M184.324 252.442L191.118 249.912M221.619 269.502L208.898 266.501L204.922 273.139L190.226 268.295M210.055 255.756C208.554 256.315 206.891 256.255 205.434 255.588C203.977 254.921 202.844 253.703 202.285 252.202C201.726 250.7 201.787 249.038 202.453 247.581C203.12 246.124 204.338 244.991 205.839 244.432C207.341 243.873 209.003 243.933 210.46 244.6C211.918 245.266 213.05 246.484 213.609 247.986C214.168 249.488 214.108 251.15 213.441 252.607C212.775 254.064 211.557 255.197 210.055 255.756Z" stroke="#D8E4F1" stroke-width="4" stroke-linecap="round" stroke-linejoin="round"/>
<path d="M189.671 287.584L175.506 249.536C175.372 249.175 175.386 248.776 175.546 248.427C175.706 248.077 175.998 247.805 176.359 247.671L214.408 233.506C214.768 233.372 215.167 233.386 215.517 233.546C215.867 233.706 216.138 233.999 216.273 234.359L230.437 272.408C230.572 272.768 230.557 273.167 230.397 273.517C230.237 273.867 229.945 274.138 229.584 274.273L191.536 288.437C191.175 288.572 190.776 288.557 190.427 288.397C190.077 288.237 189.805 287.945 189.671 287.584V287.584Z" stroke="#D8E4F1" stroke-width="4"/>
<path d="M1126.91 262.864L1117.85 266.236M1115.32 259.442L1122.12 256.912M1152.62 276.502L1139.9 273.501L1135.92 280.139L1121.23 275.295M1141.06 262.756C1139.55 263.315 1137.89 263.255 1136.43 262.588C1134.98 261.921 1133.84 260.703 1133.29 259.202C1132.73 257.7 1132.79 256.038 1133.45 254.581C1134.12 253.124 1135.34 251.991 1136.84 251.432C1138.34 250.873 1140 250.933 1141.46 251.6C1142.92 252.266 1144.05 253.484 1144.61 254.986C1145.17 256.488 1145.11 258.15 1144.44 259.607C1143.77 261.064 1142.56 262.197 1141.06 262.756Z" stroke="#D8E4F1" stroke-width="4" stroke-linecap="round" stroke-linejoin="round"/>
<path d="M1120.67 294.584L1106.51 256.536C1106.37 256.175 1106.39 255.776 1106.55 255.427C1106.71 255.077 1107 254.805 1107.36 254.671L1145.41 240.506C1145.77 240.372 1146.17 240.386 1146.52 240.546C1146.87 240.706 1147.14 240.999 1147.27 241.359L1161.44 279.408C1161.57 279.768 1161.56 280.167 1161.4 280.517C1161.24 280.867 1160.94 281.138 1160.58 281.273L1122.54 295.437C1122.18 295.572 1121.78 295.557 1121.43 295.397C1121.08 295.237 1120.8 294.945 1120.67 294.584V294.584Z" stroke="#D8E4F1" stroke-width="4"/>
</svg>
