<svg width="11" height="6" viewBox="0 0 11 6" fill="none" xmlns="http://www.w3.org/2000/svg">
<path d="M5.5062 6C5.37481 6 5.25163 5.9808 5.13666 5.94241C5.0217 5.90462 4.91494 5.84002 4.8164 5.74861L0.258762 1.52068C0.0780992 1.35309 -0.00796218 1.14345 0.000578258 0.891752C0.00846174 0.640666 0.102735 0.431326 0.283398 0.263733C0.464061 0.0961394 0.693996 0.0123421 0.973202 0.0123421C1.25241 0.0123421 1.48234 0.0961394 1.66301 0.263733L5.5062 3.8289L9.37403 0.240879C9.5547 0.0732852 9.78069 -0.0068545 10.052 0.000458668C10.3227 0.00838127 10.5483 0.0961394 10.729 0.263733C10.9097 0.431326 11 0.644627 11 0.903635C11 1.16264 10.9097 1.37594 10.729 1.54354L6.19601 5.74861C6.09746 5.84002 5.99071 5.90462 5.87574 5.94241C5.76077 5.9808 5.63759 6 5.5062 6Z" fill="#6b7280"/>
</svg>
